{"accessors":[{"bufferView":0,"byteOffset":0,"componentType":5126,"count":221,"max":[12,0,32],"min":[-12,-2,0],"normalized":false,"type":"VEC3"},{"bufferView":1,"byteOffset":0,"componentType":5126,"count":221,"max":[0,0,1,1],"min":[-0.000031,-0.000015,-1,1],"normalized":false,"type":"VEC4"},{"bufferView":2,"byteOffset":0,"componentType":5126,"count":221,"max":[0.707107,1,0.000063],"min":[-0.707128,0.707085,-0.000022],"normalized":false,"type":"VEC3"},{"bufferView":3,"byteOffset":0,"componentType":5126,"count":221,"max":[0.5,2.125],"min":[0,0],"normalized":false,"type":"VEC2"},{"bufferView":4,"byteOffset":0,"componentType":5125,"count":768,"max":[220],"min":[0],"normalized":false,"type":"SCALAR"}],"asset":{"generator":"Godot Engine v4.2.1.stable.official@b09f793f564a6c95dc76acc654b390e68441bd01","version":"2.0"},"bufferViews":[{"buffer":0,"byteLength":2652,"byteOffset":0},{"buffer":0,"byteLength":3536,"byteOffset":2652},{"buffer":0,"byteLength":2652,"byteOffset":6188},{"buffer":0,"byteLength":1768,"byteOffset":8840},{"buffer":0,"byteLength":3072,"byteOffset":10608}],"buffers":[{"byteLength":13680,"uri":"roadtest0.bin"}],"extensions":{"OMI_collider":{"colliders":[{"mesh":0,"type":"trimesh"}]}},"extensionsUsed":["GODOT_single_root","OMI_collider","OMI_physics_body"],"images":[{"uri":"textures%2F_albedo000.png"}],"materials":[{"doubleSided":true,"extensions":{},"pbrMetallicRoughness":{"baseColorFactor":[0.99999988079071,0.99999988079071,0.99999988079071,1],"baseColorTexture":{"index":0},"metallicFactor":0,"roughnessFactor":1}}],"meshes":[{"extras":{"targetNames":[]},"primitives":[{"attributes":{"NORMAL":2,"POSITION":0,"TANGENT":1,"TEXCOORD_0":3},"indices":4,"material":0,"mode":4}]}],"nodes":[{"children":[1],"extensions":{},"name":"Node3D"},{"children":[2],"extensions":{},"name":"RoadManager"},{"children":[3,8],"extensions":{},"name":"Road_001"},{"children":[4],"extensions":{},"name":"RP_001"},{"children":[5],"extensions":{},"name":"34263688899203-34263739203207"},{"children":[6],"extensions":{},"mesh":0,"name":"road_mesh"},{"children":[7],"extensions":{"OMI_physics_body":{"type":"static"}},"name":"road_mesh_col"},{"extensions":{"OMI_collider":{"collider":0}},"name":"CollisionShape3D"},{"extensions":{},"name":"RP_002","translation":[0,0,32]}],"samplers":[{"magFilter":9729,"minFilter":9987,"wrapS":10497,"wrapT":10497}],"scene":0,"scenes":[{"nodes":[0]}],"textures":[{"sampler":0,"source":0}]}